<svg width="20" height="20" viewBox="0 0 20 20" fill="none" xmlns="http://www.w3.org/2000/svg">
<path d="M12.4018 6.95239H7.59818C7.02754 6.95239 6.56494 7.41508 6.56494 7.98583V12.7904C6.56494 13.3611 7.02754 13.8238 7.59818 13.8238H12.4018C12.9725 13.8238 13.4351 13.3611 13.4351 12.7904V7.98583C13.4351 7.41508 12.9725 6.95239 12.4018 6.95239Z" stroke="#231F20" stroke-width="1.5" stroke-miterlimit="10" stroke-linecap="round"/>
<path d="M9.99098 17.7581H5.73113C4.00906 17.7581 2.61328 16.3621 2.61328 14.6397V10.379" stroke="#231F20" stroke-width="1.5" stroke-miterlimit="10" stroke-linecap="round"/>
<path d="M19.0002 9.54517L17.3507 11.195L15.7192 9.54517" stroke="#231F20" stroke-width="1.5" stroke-linecap="round" stroke-linejoin="round"/>
<path d="M1 11.195L2.64956 9.54517L4.29912 11.195" stroke="#231F20" stroke-width="1.5" stroke-linecap="round" stroke-linejoin="round"/>
<path d="M9.99121 3H14.2511C15.9731 3 17.3689 4.39604 17.3689 6.11843V10.3791" stroke="#231F20" stroke-width="1.5" stroke-miterlimit="10" stroke-linecap="round"/>
</svg>
