<svg width="20" height="20" viewBox="0 0 20 20" fill="none" xmlns="http://www.w3.org/2000/svg">
<path d="M16.1802 5.01765C16.5928 5.0522 16.8991 5.41454 16.8647 5.82722L16.061 15.4737C15.9065 17.3256 14.3579 18.7501 12.4995 18.7501H7.49951C5.64131 18.7498 4.09352 17.3255 3.93896 15.4737L3.13525 5.82722L3.13232 5.75007C3.13929 5.37016 3.43303 5.05001 3.81982 5.01765C4.20672 4.98541 4.54984 5.25249 4.61963 5.62605L4.62939 5.70222L5.43311 15.3487C5.52265 16.4233 6.42129 17.2498 7.49951 17.2501H12.4995C13.5779 17.2501 14.4763 16.4234 14.5659 15.3487L15.3706 5.70222C15.4051 5.28956 15.7675 4.98326 16.1802 5.01765Z" fill="black"/>
<path d="M7.57715 13.6088V8.58826C7.57715 8.17404 7.91293 7.83826 8.32715 7.83826C8.74136 7.83826 9.07715 8.17404 9.07715 8.58826V13.6088C9.07696 14.0228 8.74124 14.3588 8.32715 14.3588C7.91305 14.3588 7.57734 14.0228 7.57715 13.6088Z" fill="black"/>
<path d="M10.9248 13.6088V8.58826C10.9248 8.17404 11.2606 7.83826 11.6748 7.83826C12.089 7.83826 12.4248 8.17404 12.4248 8.58826V13.6088C12.4246 14.0228 12.0889 14.3588 11.6748 14.3588C11.2607 14.3588 10.925 14.0228 10.9248 13.6088Z" fill="black"/>
<path d="M17.5293 4.30884L17.6064 4.31274C17.9845 4.35126 18.2793 4.67059 18.2793 5.05884C18.2793 5.47305 17.9435 5.80884 17.5293 5.80884H2.4707C2.05649 5.80884 1.7207 5.47305 1.7207 5.05884C1.7207 4.64462 2.05649 4.30884 2.4707 4.30884H17.5293Z" fill="black"/>
<path d="M12.0737 4.82324V2.94141C12.0737 2.83588 11.9878 2.75009 11.8823 2.75H8.11768C8.01209 2.75 7.92627 2.83582 7.92627 2.94141V4.82324C7.92627 5.23746 7.59048 5.57324 7.17627 5.57324C6.76206 5.57324 6.42627 5.23746 6.42627 4.82324V2.94141C6.42627 2.00739 7.18367 1.25 8.11768 1.25H11.8823C12.8163 1.25009 13.5737 2.00745 13.5737 2.94141V4.82324C13.5737 5.23732 13.2378 5.57302 12.8237 5.57324C12.4095 5.57324 12.0737 5.23746 12.0737 4.82324Z" fill="black"/>
</svg>
